<svg width="20" height="20" x="0" y="0" viewBox="0 0 512 512">
    <rect width="512" height="512" fill="currentColor" rx="75" data-original="#1e88e5" class=""></rect>
    <path fill="#ffffff" d="M256 93.58c-104.93 0-190 68.87-190 153.82 0 35.84 15.14 68.81 40.52 94.96L86 403.75c-2.91 8.69 5.35 16.98 14.05 14.1l84.46-27.91c22.07 7.26 46.2 11.27 71.49 11.27 104.93 0 190-68.87 190-153.82S360.93 93.57 256 93.57zm-83.13 184.9c-17.16 0-31.08-13.91-31.08-31.08s13.91-31.08 31.08-31.08 31.08 13.91 31.08 31.08-13.91 31.08-31.08 31.08zm83.13 0c-17.16 0-31.08-13.91-31.08-31.08s13.91-31.08 31.08-31.08 31.08 13.91 31.08 31.08-13.91 31.08-31.08 31.08zm83.13 0c-17.16 0-31.08-13.91-31.08-31.08s13.91-31.08 31.08-31.08 31.08 13.91 31.08 31.08-13.91 31.08-31.08 31.08z" data-original="#ffffff" class=""></path>
</svg>